<svg xmlns="http://www.w3.org/2000/svg" viewBox="0 0 150 106">
  <path fill="currentColor" d="M40.7 56.86a9.11 9.11 0 0 0 6.75 2.81 9.1 9.1 0 0 0 6.74-2.81l2.47 2.47a12.55 12.55 0 0 1-9.2 3.8c-3.6 0-6.68-1.27-9.23-3.8a12.6 12.6 0 0 1-3.81-9.2c0-3.61 1.28-6.66 3.81-9.2a12.65 12.65 0 0 1 9.22-3.81c3.61 0 6.67 1.28 9.2 3.82L54.2 43.4a9.12 9.12 0 0 0-6.74-2.81c-2.64 0-4.9.93-6.75 2.8a9.1 9.1 0 0 0-2.81 6.74c0 2.64.94 4.89 2.81 6.73M65.37 63.14h3.47V45.79h-3.47zm27.31-26.02v3.47H81.4v7.8h7.82v3.47h-7.82v11.28h-3.48V37.12zm46.9 3.47h-6.95v11.27h6.96c1.56 0 2.91-.55 4-1.66 1.1-1.11 1.66-2.43 1.66-4s-.55-2.87-1.67-3.98a5.5 5.5 0 0 0-4-1.63zm-6.95 14.75v7.8h-3.47V37.12h10.43c2.53 0 4.69.9 6.46 2.67a8.71 8.71 0 0 1 2.68 6.42c0 2.11-.66 3.99-1.98 5.65a8.94 8.94 0 0 1-4.9 3.2l6.42 8.08h-4.48l-6.19-7.8h-4.97zm-34.36 4.93l-1.84-1.12 11.68-19.2 1.84 1.1z"/>
  <path fill="currentColor" d="M119.08 60.24l-10.99-19.2 1.88-1.07 10.98 19.2zm-18.76-.06a2.97 2.97 0 0 1-2.97 2.96 2.97 2.97 0 0 1-2.97-2.96 2.97 2.97 0 0 1 2.97-2.97 2.97 2.97 0 0 1 2.97 2.97"/>
  <path fill="currentColor" d="M123.45 60.17a2.97 2.97 0 0 1-5.94 0 2.97 2.97 0 0 1 2.97-2.96 2.97 2.97 0 0 1 2.97 2.96M112 40.27a2.97 2.97 0 0 1-2.97 2.96 2.97 2.97 0 0 1-2.98-2.96 2.97 2.97 0 0 1 2.98-2.97 2.97 2.97 0 0 1 2.97 2.97m-69.95 32.3a2.4 2.4 0 0 1-.89-.18 3.07 3.07 0 0 1-.38-.21 1.75 1.75 0 0 1-.33-.28 2.17 2.17 0 0 1-.49-.72 2.18 2.18 0 0 1-.17-.87c0-.32.06-.61.17-.88a2.03 2.03 0 0 1 .5-.72 2.18 2.18 0 0 1 .7-.49 2.27 2.27 0 0 1 2.49.49l-.2.2a1.88 1.88 0 0 0-.65-.43 1.96 1.96 0 0 0-.75-.15 1.97 1.97 0 0 0-1.83 1.2 1.99 1.99 0 0 0 0 1.54c.11.24.25.45.43.63a1.97 1.97 0 0 0 1.4.58 1.98 1.98 0 0 0 1.4-.57l.2.2a2.2 2.2 0 0 1-.72.48c-.29.12-.58.17-.88.17m2.56-.06h.29V68.1h-.29zm1.08-4.32l.26-.12 1.75 3.86 1.75-3.86.26.12-2 4.42zm4.81 4.32h.28V68.1h-.28zm1.3 0V68.1h.3v4.1h2.18v.28zm5.57-4.1v1.7h2.13v.3h-2.13v2.1h-.28V68.1h2.47v.28zm5.02-.1a1.98 1.98 0 0 0-1.43.58 1.99 1.99 0 0 0-.43.64c-.1.25-.16.51-.16.79a2.03 2.03 0 0 0 2.01 2.01 2.02 2.02 0 0 0 1.86-1.23c.11-.24.16-.5.16-.78s-.05-.54-.16-.79a2.03 2.03 0 0 0-1.07-1.07 1.96 1.96 0 0 0-.78-.15m0 4.3c-.31 0-.61-.06-.9-.18a2.12 2.12 0 0 1-.72-.5 2.13 2.13 0 0 1-.5-.72 2.26 2.26 0 0 1 0-1.79c.12-.28.28-.52.5-.73a2.11 2.11 0 0 1 .72-.49 2.3 2.3 0 0 1 1.8 0c.27.11.51.28.72.5.22.2.38.44.5.72a2.33 2.33 0 0 1 0 1.79 2.09 2.09 0 0 1-.5.73 2.28 2.28 0 0 1-1.62.67m3.37-1.97h.92c.2.01.39-.02.55-.08.17-.06.31-.15.43-.26.22-.21.33-.5.33-.84a.95.95 0 0 0-.14-.56.96.96 0 0 0-.36-.32 1.23 1.23 0 0 0-.43-.14 2.69 2.69 0 0 0-.37-.03h-.93v2.23zm2.1-.14c-.2.21-.47.34-.8.4l1.18 1.52-.23.17-1.28-1.66h-.97v1.58h-.28V68.1h1.2c.47 0 .85.11 1.13.33.16.12.28.26.35.43.08.17.12.36.12.57 0 .43-.14.77-.42 1.04zm3.16 2.07c-.4 0-.75-.07-1-.22a1.32 1.32 0 0 1-.54-.53 1.25 1.25 0 0 1-.14-.3 2 2 0 0 1-.06-.28 1.35 1.35 0 0 1-.02-.25V68.11h.27V70.95l.03.22a1.55 1.55 0 0 0 .16.5c.22.4.66.6 1.3.6s1.07-.2 1.29-.6a1.36 1.36 0 0 0 .16-.5c.02-.08.02-.15.02-.22V68.11h.3v2.68l-.01.19-.03.24c-.01.1-.04.19-.06.29-.03.1-.07.2-.13.3a1.32 1.32 0 0 1-.54.53c-.27.14-.6.22-1 .22m3.7-3.62l-.78 3.6-.27-.06.96-4.46 1.68 3.87L78 68l.97 4.47-.27.06-.78-3.6-1.6 3.66zm7.4-.55v1.7h2.13v.3h-2.13v2.1h-.29V68.1h2.48v.28zm5.02-.1c-.28 0-.55.05-.79.15a1.99 1.99 0 0 0-1.07 1.08c-.1.24-.16.5-.16.78a2.03 2.03 0 0 0 .59 1.42 2.08 2.08 0 0 0 1.43.59 2 2 0 0 0 1.85-1.23 1.96 1.96 0 0 0 .16-.78c0-.28-.05-.54-.16-.78a2.01 2.01 0 0 0-.43-.64 2.02 2.02 0 0 0-1.42-.6m0 4.3c-.31 0-.61-.05-.9-.17a2.14 2.14 0 0 1-.73-.5 2.27 2.27 0 0 1-.67-1.61c0-.31.06-.61.18-.9a2.14 2.14 0 0 1 .5-.73 2.3 2.3 0 0 1 2.51-.49c.28.12.52.28.73.5a2.25 2.25 0 0 1 .5 2.52 2.13 2.13 0 0 1-.5.72c-.21.21-.45.37-.73.49a2.26 2.26 0 0 1-.9.18m3.38-1.96h.92a1.5 1.5 0 0 0 .55-.08 1.23 1.23 0 0 0 .43-.27c.22-.21.33-.49.33-.84a.94.94 0 0 0-.15-.56.96.96 0 0 0-.36-.32 1.23 1.23 0 0 0-.43-.14 2.68 2.68 0 0 0-.37-.03h-.92v2.24zm2.1-.15c-.21.21-.48.34-.8.4l1.17 1.52-.23.17-1.28-1.66h-.96v1.58h-.29V68.1h1.21c.47 0 .84.11 1.13.33.15.12.27.26.35.43.07.17.11.36.11.57 0 .43-.14.77-.41 1.04zm4.3.1h1.72l-.86-1.9-.86 1.9zm2.62 1.97l-.77-1.7h-1.98l-.77 1.7-.25-.12L97.77 68l2.02 4.44-.26.12zm2.6.01h-.1a2.2 2.2 0 0 1-.46-.07 1.71 1.71 0 0 1-.44-.17 1.55 1.55 0 0 1-.62-.58l.26-.13c.09.18.26.34.5.47a1.64 1.64 0 0 0 .77.2 1.71 1.71 0 0 0 .86-.2c.15-.08.28-.19.38-.32a.85.85 0 0 0 .19-.48.7.7 0 0 0-.18-.58 1.13 1.13 0 0 0-.48-.28 2.26 2.26 0 0 0-.7-.1 2.35 2.35 0 0 1-.58-.07 1.83 1.83 0 0 1-.35-.12 1.03 1.03 0 0 1-.31-.22.99.99 0 0 1-.26-.73c.02-.3.13-.54.32-.74.18-.17.4-.29.67-.35.17-.04.35-.06.53-.05a2.2 2.2 0 0 1 .54.1c.18.05.34.13.48.22.13.1.24.21.3.34l-.24.14a.75.75 0 0 0-.24-.26 1.4 1.4 0 0 0-.38-.17 1.8 1.8 0 0 0-.46-.08 1.6 1.6 0 0 0-.46.03 2.21 2.21 0 0 0-.23.08.88.88 0 0 0-.24.15.8.8 0 0 0-.2.24.8.8 0 0 0-.1.37c-.01.2.05.38.18.5a.79.79 0 0 0 .26.19 1.82 1.82 0 0 0 .58.14l.2.01c.3 0 .57.04.8.12.25.08.43.2.57.35a1 1 0 0 1 .26.79 1.12 1.12 0 0 1-.23.62c-.11.15-.26.28-.46.4a2 2 0 0 1-.93.24m3.7 0h-.1a2.2 2.2 0 0 1-.46-.07 1.72 1.72 0 0 1-.44-.16 1.57 1.57 0 0 1-.37-.27 1.38 1.38 0 0 1-.25-.31l.26-.13c.09.18.25.33.5.46a1.64 1.64 0 0 0 .77.2 1.72 1.72 0 0 0 .86-.2c.15-.08.28-.19.38-.32a.85.85 0 0 0 .19-.48.71.71 0 0 0-.18-.57 1.13 1.13 0 0 0-.48-.29 2.27 2.27 0 0 0-.7-.1 2.37 2.37 0 0 1-.59-.07 1.8 1.8 0 0 1-.34-.12 1.03 1.03 0 0 1-.32-.22.99.99 0 0 1-.25-.73c.02-.3.12-.54.32-.74.18-.17.4-.29.67-.35.17-.04.35-.06.53-.05.18 0 .36.04.54.1.18.05.34.13.47.22.14.1.24.21.31.34l-.25.14a.75.75 0 0 0-.23-.26 1.4 1.4 0 0 0-.39-.17 1.8 1.8 0 0 0-.46-.08 1.6 1.6 0 0 0-.45.03 2.22 2.22 0 0 0-.23.08.86.86 0 0 0-.24.15.79.79 0 0 0-.2.24.8.8 0 0 0-.1.37c-.01.2.04.38.18.5a.8.8 0 0 0 .26.19 1.83 1.83 0 0 0 .58.14l.2.01c.3 0 .57.04.8.12.24.08.43.2.57.35a1 1 0 0 1 .26.79 1.12 1.12 0 0 1-.23.62c-.11.15-.26.28-.46.4a1.99 1.99 0 0 1-.93.24m2.9-4.17v1.66h2.06v.28h-2.06v1.88h2.12v.28h-2.4V68.1h2.4v.28zm6.24 0h-1.53v4.1h-.29v-4.1h-1.52v-.28h3.34zm3.01 2.24h.92a1.5 1.5 0 0 0 .55-.08 1.23 1.23 0 0 0 .43-.27c.22-.21.33-.49.33-.84a.93.93 0 0 0-.15-.56.96.96 0 0 0-.36-.32 1.23 1.23 0 0 0-.43-.14 2.68 2.68 0 0 0-.37-.03h-.92v2.24zm2.1-.15c-.21.21-.48.34-.8.4l1.17 1.53-.22.16-1.28-1.66h-.97v1.58h-.28V68.1h1.2c.47 0 .85.11 1.13.33.15.12.27.26.35.43.07.17.12.36.12.57 0 .43-.14.77-.42 1.04zm1.67-2.09v1.66h2.07v.28h-2.07v1.88h2.13v.28h-2.41V68.1h2.4v.28zm5.22 4.17c-.3 0-.6-.06-.88-.18a3.05 3.05 0 0 1-.38-.2 1.78 1.78 0 0 1-.33-.29 2.2 2.2 0 0 1-.5-.72 2.17 2.17 0 0 1-.17-.87 2.17 2.17 0 0 1 .67-1.6 2.2 2.2 0 0 1 1.6-.66 2.2 2.2 0 0 1 1.6.66l-.21.2c-.18-.2-.4-.33-.64-.43a1.97 1.97 0 0 0-.76-.15A1.97 1.97 0 0 0 125 70.3a1.97 1.97 0 0 0 1.21 1.82 2 2 0 0 0 1.53 0c.24-.1.46-.24.64-.42l.2.2a2.21 2.21 0 0 1-1.6.66m4.64-4.27a1.98 1.98 0 0 0-1.42.59 2.01 2.01 0 0 0-.43.64c-.1.24-.16.5-.16.78s.05.54.16.78a2.06 2.06 0 0 0 1.07 1.07c.24.1.5.16.78.16a2.03 2.03 0 0 0 1.86-1.23 1.96 1.96 0 0 0 0-1.56 2.04 2.04 0 0 0-1.07-1.08 1.96 1.96 0 0 0-.79-.15m0 4.3c-.3 0-.6-.06-.9-.18a2.13 2.13 0 0 1-.72-.5 2.13 2.13 0 0 1-.5-.72 2.26 2.26 0 0 1 0-1.79c.12-.27.29-.51.5-.72a2.12 2.12 0 0 1 .73-.5 2.3 2.3 0 0 1 1.79 0c.27.12.52.28.72.5.22.2.39.45.5.72a2.33 2.33 0 0 1 0 1.8 2.09 2.09 0 0 1-.5.72 2.27 2.27 0 0 1-1.62.67m2.63-4.42l.26-.12 1.75 3.86 1.75-3.86.26.12-2.01 4.43zm5.1.22v1.66h2.06v.28h-2.06v1.88h2.12v.28h-2.41V68.1h2.4v.28zm3.45 2.24h.93a1.48 1.48 0 0 0 .54-.08 1.21 1.21 0 0 0 .44-.27c.22-.21.33-.49.33-.84a.97.97 0 0 0-.15-.56 1.04 1.04 0 0 0-.36-.32 1.24 1.24 0 0 0-.43-.14 2.8 2.8 0 0 0-.37-.03h-.93v2.24zm2.1-.15a1.48 1.48 0 0 1-.8.4l1.18 1.53-.23.16-1.28-1.66h-.97v1.58h-.28V68.1h1.21c.46 0 .84.11 1.13.33.15.12.26.26.35.43.07.17.1.36.1.57 0 .43-.13.77-.4 1.04zm3.16.25v1.76h-.3v-1.76L146 68.19l.23-.16 1.68 2.4 1.69-2.4.23.16zm-111.17.62a.43.43 0 0 0-.32.14L34.3 70.1l.01-.08v-.07l2.3-1.31a.46.46 0 0 0 .27.1.45.45 0 0 0 .46-.45.45.45 0 0 0-.9 0l.01.12-2.27 1.29a.45.45 0 0 0-.77.32c0 .25.2.45.45.45a.46.46 0 0 0 .3-.12l2.28 1.38a.28.28 0 0 0 0 .06.45.45 0 0 0 .9 0 .45.45 0 0 0-.46-.45m33.22-31.1a2.97 2.97 0 0 1-2.97 2.97 2.97 2.97 0 0 1-2.97-2.96 2.97 2.97 0 0 1 2.97-2.97 2.97 2.97 0 0 1 2.97 2.97"/>
  <path fill="currentColor" d="M52.91 105.93A52.89 52.89 0 0 1 14.45 89.5 52.35 52.35 0 0 1 .02 51.8a52.37 52.37 0 0 1 16.51-36.85A53.1 53.1 0 0 1 67.75 2.66c.18.05.27.23.22.4-.04.17-.22.28-.4.22a52.47 52.47 0 0 0-50.6 12.13 52.1 52.1 0 0 0-2.05 73.65c18.6 19.64 49.65 21.73 70.67 4.76a.32.32 0 1 1 .41.5 52.55 52.55 0 0 1-33.09 11.61"/>
  <path fill="currentColor" d="M52.93 102.22a49.23 49.23 0 0 1-35.74-15.3 48.99 48.99 0 0 1 1.93-69.25 49.06 49.06 0 0 1 60.09-5.73c.15.1.2.3.1.45a.32.32 0 0 1-.45.1 48.4 48.4 0 0 0-59.3 5.65 48.33 48.33 0 0 0-1.9 68.33 48.63 48.63 0 0 0 57.71 9.58.32.32 0 1 1 .3.57 48.84 48.84 0 0 1-22.74 5.6"/>
  <path fill="currentColor" d="M52.87 97.32a44.05 44.05 0 0 1-30.35-76.06 44.22 44.22 0 0 1 64.53 4.19.32.32 0 0 1-.05.45.33.33 0 0 1-.45-.04 44.08 44.08 0 0 0-2.13-2.42 43.56 43.56 0 0 0-61.45-1.7 43.4 43.4 0 0 0-1.72 61.34 43.5 43.5 0 0 0 57.5 5.03.32.32 0 0 1 .45.07.32.32 0 0 1-.06.45 43.93 43.93 0 0 1-26.27 8.69"/>
  <path fill="currentColor" d="M52.7 94.7a41.71 41.71 0 0 1-30.26-13A41.27 41.27 0 0 1 11.08 52a41.26 41.26 0 0 1 13-29.03A41.77 41.77 0 0 1 56.3 11.75c.18 0 .3.17.3.34a.33.33 0 0 1-.36.3 41.07 41.07 0 0 0-31.7 11.04A40.62 40.62 0 0 0 11.71 52a40.61 40.61 0 0 0 11.2 29.25 41.08 41.08 0 0 0 35.86 12.35.32.32 0 0 1 .37.27.33.33 0 0 1-.27.37 41.86 41.86 0 0 1-6.17.46"/>
  <path fill="currentColor" d="M52.6 88.44a35.9 35.9 0 0 1-25.96-11.15 35.66 35.66 0 0 1 1.4-50.4 35.74 35.74 0 0 1 38.76-6.82c.16.07.24.26.16.43a.32.32 0 0 1-.42.16 35.08 35.08 0 0 0-38.05 6.7 35 35 0 0 0 24.12 60.43h.15c.19 0 .33.15.33.32a.33.33 0 0 1-.32.33h-.16z"/>
  <path fill="currentColor" d="M39.02 82a.3.3 0 0 1-.14-.03 32.17 32.17 0 0 1-9.33-6.84 32.26 32.26 0 0 1 1.27-45.59 32.24 32.24 0 0 1 26.09-8.58.32.32 0 0 1 .28.36.32.32 0 0 1-.36.28 31.6 31.6 0 0 0-26.81 53.09 31.52 31.52 0 0 0 9.14 6.7.32.32 0 1 1-.14.62M70.64 2.96a2.97 2.97 0 0 1-2.97 2.97 2.97 2.97 0 0 1-2.97-2.97A2.97 2.97 0 0 1 67.67 0a2.97 2.97 0 0 1 2.97 2.96M88.77 93.8a2.97 2.97 0 0 1-2.97 2.97 2.97 2.97 0 0 1-2.97-2.97 2.97 2.97 0 0 1 2.97-2.97 2.97 2.97 0 0 1 2.97 2.97M69.91 21.05A2.97 2.97 0 0 1 66.92 24a2.97 2.97 0 0 1-2.97-2.96 2.97 2.97 0 0 1 2.97-2.97 2.97 2.97 0 0 1 2.97 2.97"/>
</svg>
