<svg xmlns="http://www.w3.org/2000/svg" xmlns:xlink="http://www.w3.org/1999/xlink" viewBox="0 0 150 106">
  <path fill="currentColor" d="M40.704 56.858c1.84 1.875 4.102 2.813 6.747 2.813 2.636 0 4.897-.938 6.737-2.813l2.468 2.468c-2.535 2.531-5.596 3.813-9.205 3.813-3.584 0-6.675-1.282-9.219-3.813-2.531-2.536-3.815-5.625-3.815-9.2 0-3.606 1.284-6.658 3.815-9.19 2.544-2.53 5.635-3.817 9.219-3.817 3.609 0 6.67 1.286 9.205 3.818l-2.468 2.459c-1.84-1.87-4.101-2.809-6.737-2.809-2.645 0-4.906.938-6.747 2.809-1.874 1.842-2.818 4.095-2.818 6.73 0 2.642.944 4.894 2.818 6.732"/>
  <path fill="currentColor" d="M65.373 63.139h3.47V45.792h-3.47zm27.31-26.02v3.468H81.39v7.808h7.82v3.468h-7.82V63.14H77.91v-26.02zm46.904 3.468h-6.953v11.276h6.953c1.562 0 2.914-.554 3.996-1.665 1.112-1.109 1.668-2.43 1.668-3.99s-.556-2.879-1.668-3.989c-1.082-1.076-2.434-1.632-3.996-1.632zm-6.953 14.75v7.802h-3.474V37.12h10.427c2.535 0 4.691.9 6.46 2.67 1.773 1.77 2.679 3.884 2.679 6.42 0 2.114-.658 3.989-1.98 5.654-1.289 1.632-2.919 2.674-4.902 3.192l6.43 8.084h-4.485l-6.186-7.803h-4.969zm-34.364 4.93l-1.844-1.118 11.681-19.208 1.845 1.117z" mask="url(#b)"/>
  <path fill="currentColor" d="M119.08 60.243l-10.987-19.21 1.873-1.068 10.988 19.21zm-18.76-.068a2.969 2.969 0 0 1-2.972 2.964 2.968 2.968 0 0 1-2.97-2.964 2.97 2.97 0 0 1 2.97-2.968 2.97 2.97 0 0 1 2.973 2.968" mask="url(#b)"/>
  <path fill="currentColor" d="M123.453 60.175a2.972 2.972 0 0 1-5.942 0 2.967 2.967 0 0 1 2.97-2.968 2.973 2.973 0 0 1 2.972 2.968M112 40.255a2.969 2.969 0 0 1-2.969 2.964 2.97 2.97 0 0 1-2.978-2.963 2.973 2.973 0 0 1 2.978-2.964A2.97 2.97 0 0 1 112 40.256M42.048 72.555a2.4 2.4 0 0 1-.885-.175 3.07 3.07 0 0 1-.38-.21 1.748 1.748 0 0 1-.331-.277 2.175 2.175 0 0 1-.49-.72 2.18 2.18 0 0 1-.176-.876c0-.315.06-.608.177-.88a2.03 2.03 0 0 1 .489-.717 2.18 2.18 0 0 1 .711-.488c.282-.118.577-.177.885-.177.315 0 .61.06.88.177.265.11.505.27.72.488l-.203.197a1.88 1.88 0 0 0-.64-.43 1.964 1.964 0 0 0-.757-.148 1.973 1.973 0 0 0-1.825 1.207 1.986 1.986 0 0 0 0 1.536c.107.24.25.45.426.63a1.973 1.973 0 0 0 1.398.58c.266.001.519-.049.758-.146.24-.099.456-.244.64-.431l.203.198a2.2 2.2 0 0 1-.72.487c-.287.116-.582.175-.88.175m2.564-.067h.286v-4.38h-.286zm1.082-4.322l.261-.114 1.748 3.857 1.743-3.857.262.114-2.005 4.429zm4.81 4.322h.28v-4.38h-.28zm1.3 0v-4.38h.287v4.097h2.19v.283zm5.568-4.096v1.705h2.131v.284h-2.13v2.107h-.283v-4.38h2.472v.284zm5.016-.106a1.984 1.984 0 0 0-1.423.588 1.99 1.99 0 0 0-.43.641c-.11.244-.16.505-.16.782 0 .278.05.538.16.783.105.243.249.458.43.638.18.181.395.324.635.429.244.105.51.16.788.16a2.017 2.017 0 0 0 1.857-1.227c.105-.245.156-.505.156-.783 0-.277-.05-.538-.156-.782a2.032 2.032 0 0 0-1.074-1.072 1.961 1.961 0 0 0-.783-.157m0 4.302c-.312 0-.61-.059-.897-.18a2.118 2.118 0 0 1-.724-.492 2.135 2.135 0 0 1-.493-.726 2.258 2.258 0 0 1 0-1.788c.114-.278.278-.518.493-.728a2.11 2.11 0 0 1 .724-.491 2.303 2.303 0 0 1 1.794 0c.274.112.518.277.724.491.22.21.383.45.497.728.118.286.182.584.182.895 0 .307-.064.606-.182.893a2.088 2.088 0 0 1-.497.726c-.206.214-.45.378-.724.492-.286.121-.585.18-.897.18m3.377-1.963h.918c.203.007.384-.021.552-.08.164-.06.307-.15.43-.266.219-.213.328-.49.328-.84 0-.236-.047-.424-.147-.563a.964.964 0 0 0-.358-.313 1.23 1.23 0 0 0-.43-.14 2.688 2.688 0 0 0-.37-.03h-.923v2.232zm2.098-.143c-.211.208-.476.34-.8.397l1.174 1.525-.227.168-1.28-1.665h-.965v1.58h-.286V68.11h1.209c.467 0 .842.112 1.124.33.156.116.274.26.349.428.076.17.118.362.118.572 0 .43-.138.774-.417 1.043zm3.154 2.073c-.405 0-.742-.072-1.003-.22a1.318 1.318 0 0 1-.538-.533 1.248 1.248 0 0 1-.131-.298c-.03-.1-.05-.194-.063-.282a1.355 1.355 0 0 1-.026-.247c-.004-.077-.004-.136-.004-.182V68.11h.282v2.684c0 .042.004.097.004.16s.01.134.021.214a1.547 1.547 0 0 0 .157.5c.227.404.66.606 1.3.606s1.07-.202 1.294-.605a1.357 1.357 0 0 0 .164-.5c.013-.08.016-.152.02-.215 0-.063.005-.118.005-.16V68.11h.282v2.684c0 .046 0 .105-.004.182 0 .074-.008.158-.025.247-.012.088-.038.183-.064.282-.029.1-.071.201-.13.298a1.319 1.319 0 0 1-.539.534c-.265.147-.602.219-1.002.219m3.706-3.62l-.783 3.603-.274-.063.964-4.457 1.685 3.868 1.68-3.872.969 4.47-.27.06-.787-3.614-1.592 3.67zm7.395-.543v1.705h2.13v.284h-2.13v2.107h-.283v-4.38h2.472v.284zm5.02-.106c-.282 0-.544.052-.788.157a1.99 1.99 0 0 0-1.07 1.072c-.105.244-.16.505-.16.782a2.03 2.03 0 0 0 .59 1.421c.185.181.396.324.64.429.244.105.506.16.788.16.273 0 .534-.055.779-.16.248-.105.463-.248.644-.429.18-.18.324-.395.43-.638a1.96 1.96 0 0 0 .16-.783c0-.277-.055-.538-.16-.782a2.01 2.01 0 0 0-.43-.64 2.018 2.018 0 0 0-1.423-.59m0 4.303c-.312 0-.611-.059-.898-.18a2.144 2.144 0 0 1-.728-.492 2.268 2.268 0 0 1-.674-1.619c0-.31.059-.61.181-.895a2.14 2.14 0 0 1 .493-.728 2.304 2.304 0 0 1 2.518-.492c.278.113.518.278.728.492.215.21.38.45.494.728.122.286.18.584.18.895 0 .307-.058.606-.18.893a2.135 2.135 0 0 1-.494.726c-.21.214-.45.378-.728.492a2.26 2.26 0 0 1-.892.18m3.373-1.963h.918a1.5 1.5 0 0 0 .551-.08 1.23 1.23 0 0 0 .43-.266c.219-.213.329-.49.329-.84 0-.236-.047-.424-.148-.563a.96.96 0 0 0-.358-.313 1.232 1.232 0 0 0-.43-.14 2.682 2.682 0 0 0-.37-.03h-.922v2.232zm2.097-.143c-.21.208-.476.34-.8.397l1.174 1.525-.227.168-1.28-1.665h-.964v1.58h-.286V68.11h1.208c.468 0 .842.112 1.124.33.156.116.274.26.35.428.075.17.118.362.118.572 0 .43-.14.774-.417 1.043zm4.304.093h1.722l-.859-1.905-.863 1.905zm2.62 1.975l-.768-1.694h-1.983l-.766 1.694-.257-.12 2.017-4.445 2.017 4.446-.26.12zm2.597.011l-.05-.002c-.017-.002-.03-.004-.046-.004a2.193 2.193 0 0 1-.463-.064 1.71 1.71 0 0 1-.438-.167 1.554 1.554 0 0 1-.62-.58l.257-.13c.089.18.257.331.498.462a1.642 1.642 0 0 0 .774.198h.004a1.712 1.712 0 0 0 .86-.198c.147-.08.273-.186.378-.315a.847.847 0 0 0 .186-.485.709.709 0 0 0-.181-.572 1.128 1.128 0 0 0-.476-.281 2.257 2.257 0 0 0-.7-.1 2.345 2.345 0 0 1-.585-.07 1.829 1.829 0 0 1-.35-.124 1.028 1.028 0 0 1-.31-.223c-.182-.198-.261-.44-.253-.727.016-.295.122-.543.32-.74.176-.173.4-.289.67-.354.167-.041.344-.056.53-.046a2.195 2.195 0 0 1 .534.092c.182.057.342.135.477.23.138.096.24.208.311.339l-.248.14a.747.747 0 0 0-.24-.259 1.393 1.393 0 0 0-.383-.176 1.8 1.8 0 0 0-.46-.08 1.604 1.604 0 0 0-.454.038 2.215 2.215 0 0 0-.232.075.879.879 0 0 0-.24.148.795.795 0 0 0-.202.245.796.796 0 0 0-.097.365c-.013.212.046.382.177.51a.788.788 0 0 0 .261.183 1.817 1.817 0 0 0 .58.143c.09.004.153.009.195.009.307 0 .577.039.813.117.24.08.425.198.564.353a.994.994 0 0 1 .261.786 1.124 1.124 0 0 1-.231.619c-.11.155-.262.286-.46.395a2.003 2.003 0 0 1-.93.25m3.697 0l-.05-.002c-.017-.002-.03-.004-.047-.004a2.197 2.197 0 0 1-.463-.064 1.722 1.722 0 0 1-.438-.167 1.568 1.568 0 0 1-.37-.265 1.383 1.383 0 0 1-.25-.314l.258-.13c.089.179.257.33.497.46a1.643 1.643 0 0 0 .775.198h.003a1.716 1.716 0 0 0 .86-.197c.147-.08.274-.186.379-.315a.848.848 0 0 0 .186-.485.711.711 0 0 0-.182-.572 1.132 1.132 0 0 0-.475-.281 2.265 2.265 0 0 0-.7-.1 2.367 2.367 0 0 1-.586-.07 1.793 1.793 0 0 1-.348-.124 1.03 1.03 0 0 1-.312-.223c-.182-.198-.261-.44-.253-.727.017-.295.123-.543.32-.74.177-.173.4-.289.67-.354.168-.041.345-.056.53-.046.181.009.362.04.535.092.18.057.342.135.476.23.139.096.24.208.312.339l-.25.14a.75.75 0 0 0-.239-.259 1.405 1.405 0 0 0-.383-.176 1.792 1.792 0 0 0-.46-.08 1.605 1.605 0 0 0-.454.038 2.216 2.216 0 0 0-.232.075.863.863 0 0 0-.24.148.787.787 0 0 0-.202.245.796.796 0 0 0-.097.365c-.012.212.047.382.178.51a.796.796 0 0 0 .26.183 1.833 1.833 0 0 0 .58.143c.09.004.153.009.196.009.306 0 .576.039.812.117.24.08.425.198.565.353a.991.991 0 0 1 .26.786 1.119 1.119 0 0 1-.231.619c-.11.155-.261.286-.459.395a1.989 1.989 0 0 1-.93.25m2.9-4.169v1.653h2.064v.286h-2.063v1.874h2.122v.283h-2.409v-4.38h2.41v.284zm6.238 0h-1.53v4.096h-.286v-4.096h-1.524v-.283h3.34zm3.015 2.233h.918a1.5 1.5 0 0 0 .551-.08 1.23 1.23 0 0 0 .43-.266c.219-.213.329-.49.329-.84 0-.236-.046-.424-.148-.563a.959.959 0 0 0-.358-.313 1.232 1.232 0 0 0-.43-.14 2.682 2.682 0 0 0-.37-.03h-.922v2.232zm2.097-.143c-.21.208-.476.34-.8.397l1.175 1.525-.228.168-1.28-1.665h-.964v1.58h-.286V68.11h1.208c.468 0 .842.112 1.124.33.157.116.274.26.35.428.076.17.118.362.118.572 0 .43-.14.774-.417 1.043zm1.676-2.09v1.653h2.063v.286h-2.063v1.874h2.123v.283h-2.41v-4.38h2.41v.284zm5.218 4.163c-.294 0-.594-.06-.884-.175a3.053 3.053 0 0 1-.38-.21 1.785 1.785 0 0 1-.332-.277 2.191 2.191 0 0 1-.488-.72 2.172 2.172 0 0 1-.177-.876c0-.315.058-.608.177-.88.113-.276.273-.515.488-.717a2.193 2.193 0 0 1 1.596-.665c.316 0 .61.06.88.177.265.11.506.27.72.488l-.202.197c-.185-.19-.4-.332-.64-.43a1.97 1.97 0 0 0-.758-.148 1.973 1.973 0 0 0-1.98 1.978c0 .269.056.526.156.765.106.24.249.45.426.63.176.18.388.32.627.426a2.003 2.003 0 0 0 1.529.008c.24-.099.455-.244.64-.431l.202.198a2.21 2.21 0 0 1-1.6.662m4.64-4.27a1.981 1.981 0 0 0-1.423.59 2.01 2.01 0 0 0-.43.64c-.108.244-.16.505-.16.782 0 .278.052.538.16.783.106.243.25.458.43.638.181.181.396.324.636.429.244.105.51.16.788.16a2.026 2.026 0 0 0 1.857-1.227c.105-.245.155-.505.155-.783 0-.277-.05-.538-.155-.782a2.041 2.041 0 0 0-1.074-1.072 1.963 1.963 0 0 0-.783-.157m0 4.302c-.312 0-.61-.059-.897-.18a2.128 2.128 0 0 1-.725-.492 2.133 2.133 0 0 1-.492-.726 2.258 2.258 0 0 1 0-1.788c.114-.278.277-.518.492-.728a2.12 2.12 0 0 1 .725-.491 2.303 2.303 0 0 1 1.794 0c.273.112.518.277.724.491.22.21.383.45.497.728.118.286.18.584.18.895 0 .307-.062.606-.18.893a2.088 2.088 0 0 1-.497.726 2.27 2.27 0 0 1-1.621.672m2.627-4.422l.261-.114 1.749 3.857 1.747-3.857.261.114-2.008 4.429zm5.096.226v1.653h2.064v.286h-2.064v1.874h2.123v.283h-2.41v-4.38h2.41v.284zm3.458 2.233h.922a1.48 1.48 0 0 0 .547-.08 1.21 1.21 0 0 0 .434-.266c.22-.213.328-.49.328-.84 0-.236-.05-.424-.147-.563a1.037 1.037 0 0 0-.357-.313 1.24 1.24 0 0 0-.43-.14 2.802 2.802 0 0 0-.371-.03h-.926v2.232zm2.102-.143a1.48 1.48 0 0 1-.801.397l1.175 1.525-.228.168-1.284-1.665h-.964v1.58h-.282V68.11h1.208c.463 0 .839.112 1.125.33.156.116.269.26.35.428.075.17.113.362.113.572 0 .43-.14.774-.412 1.043zm3.15.248v1.758h-.287V70.73l-1.773-2.542.232-.157 1.684 2.405 1.685-2.405.231.157zm-111.166.62a.433.433 0 0 0-.316.135L34.3 70.114c.004-.025.012-.05.012-.084 0-.021-.008-.046-.008-.067l2.3-1.316a.46.46 0 0 0 .277.096.45.45 0 0 0 .46-.445.452.452 0 0 0-.906 0c0 .042.008.08.016.118l-2.274 1.294a.453.453 0 0 0-.77.32c0 .252.202.45.45.45a.463.463 0 0 0 .312-.122l2.274 1.38a.277.277 0 0 0-.008.066.453.453 0 0 0 .906 0 .454.454 0 0 0-.46-.454m33.223-31.094a2.967 2.967 0 0 1-2.973 2.963 2.967 2.967 0 0 1-2.974-2.963 2.97 2.97 0 0 1 2.974-2.964 2.97 2.97 0 0 1 2.973 2.964" mask="url(#b)"/>
  <path fill="currentColor" d="M52.914 105.933c-14.112 0-28.171-5.561-38.467-16.43C4.75 79.27-.373 65.875.02 51.79c.394-14.082 6.258-27.17 16.51-36.852C30.138 2.091 49.77-2.616 67.755 2.659c.173.05.27.229.22.4-.049.17-.228.279-.401.218-17.765-5.2-37.154-.563-50.597 12.131-20.908 19.74-21.833 52.782-2.059 73.65 18.601 19.639 49.649 21.734 70.676 4.762a.323.323 0 1 1 .408.5c-9.651 7.789-21.386 11.613-33.088 11.613" mask="url(#b)"/>
  <path fill="currentColor" d="M52.927 102.22c-13.203 0-26.251-5.289-35.739-15.302C-1.398 67.293-.53 36.23 19.121 17.675 35.51 2.205 60.217-.15 79.21 11.945c.15.096.194.296.097.447a.319.319 0 0 1-.446.097C60.122.553 35.739 2.878 19.568 18.145.172 36.455-.682 67.108 17.66 86.473c14.86 15.686 38.594 19.625 57.712 9.577a.323.323 0 1 1 .303.572 48.835 48.835 0 0 1-22.748 5.598" mask="url(#b)"/>
  <path fill="currentColor" d="M52.866 97.32c-11.768 0-23.461-4.686-32.09-13.794C4.066 65.88 4.846 37.95 22.52 21.26 40.19 4.574 68.168 5.348 84.889 22.993c.77.817 1.495 1.644 2.158 2.457a.32.32 0 0 1-.046.454.326.326 0 0 1-.455-.046 44.083 44.083 0 0 0-2.13-2.422C67.945 6.052 40.38 5.284 22.967 21.731 5.55 38.174 4.78 65.696 21.248 83.08c15.137 15.982 39.856 18.143 57.5 5.03a.323.323 0 0 1 .453.066.322.322 0 0 1-.065.452 43.932 43.932 0 0 1-26.27 8.692" mask="url(#b)"/>
  <path fill="currentColor" d="M52.706 94.709a41.713 41.713 0 0 1-30.262-13c-7.641-8.068-11.678-18.622-11.369-29.72.312-11.095 4.932-21.406 13.011-29.034a41.771 41.771 0 0 1 32.21-11.21c.179.014.31.172.295.348-.015.177-.181.303-.35.294a41.068 41.068 0 0 0-31.709 11.04c-7.954 7.508-12.503 17.659-12.81 28.582-.305 10.924 3.67 21.313 11.194 29.255C32.119 90.98 45.54 95.592 58.78 93.612a.32.32 0 0 1 .368.27.325.325 0 0 1-.271.369 41.856 41.856 0 0 1-6.172.458" mask="url(#b)"/>
  <path fill="currentColor" d="M52.609 88.44c-9.792 0-19.247-4.06-25.97-11.153-13.526-14.284-12.896-36.893 1.406-50.401a35.736 35.736 0 0 1 38.75-6.813c.164.071.24.26.168.425a.315.315 0 0 1-.425.167 35.08 35.08 0 0 0-38.047 6.692C14.447 40.619 13.827 62.817 27.11 76.84c6.599 6.967 15.887 10.954 25.499 10.954.051 0 .104 0 .154-.002h.002c.18 0 .322.145.325.322a.326.326 0 0 1-.322.326h-.159z" mask="url(#b)"/>
  <path fill="currentColor" d="M39.02 82.008a.307.307 0 0 1-.141-.034 32.172 32.172 0 0 1-9.326-6.842C17.316 62.21 17.888 41.757 30.824 29.54a32.243 32.243 0 0 1 26.085-8.581.319.319 0 0 1 .282.357.318.318 0 0 1-.358.282C47.45 20.472 38.13 23.533 31.27 30.01c-12.68 11.971-13.239 32.015-1.247 44.678a31.52 31.52 0 0 0 9.136 6.706.323.323 0 1 1-.14.614M70.642 2.964a2.97 2.97 0 0 1-2.973 2.968 2.97 2.97 0 0 1-2.973-2.968A2.969 2.969 0 0 1 67.669 0a2.97 2.97 0 0 1 2.973 2.964m18.13 90.824a2.97 2.97 0 0 1-2.974 2.969 2.97 2.97 0 0 1-2.969-2.969 2.968 2.968 0 0 1 2.97-2.963 2.969 2.969 0 0 1 2.973 2.963M69.905 21.046a2.966 2.966 0 0 1-2.973 2.964 2.966 2.966 0 0 1-2.97-2.964 2.968 2.968 0 0 1 2.97-2.963 2.97 2.97 0 0 1 2.973 2.963" />
</svg>
